name ./resultDataOpenSim/trcMotMarkerGrf/sub10/grf-12-05.mot
datacolumns 19
datarows 22
range 1.52000000 1.60400000
endheader

                time	     ground_force_vx	     ground_force_vy	     ground_force_vz	     ground_force_px	     ground_force_py	     ground_force_pz	   l_ground_force_vx	   l_ground_force_vy	   l_ground_force_vz	   l_ground_force_px	   l_ground_force_py	   l_ground_force_pz	     ground_torque_x	     ground_torque_y	     ground_torque_z	   l_ground_torque_x	   l_ground_torque_y	   l_ground_torque_z	
          1.52000000	        -22.92957235	        453.84295685	        -21.24461562	          0.74428051	          0.00000000	          0.00544032	          0.00000000	          0.00000000	          0.00000000	          0.00000000	          0.00000000	          0.00000000	          0.00000000	          2.18071028	          0.00000000	          0.00000000	          0.00000000	          0.00000000	
          1.52400000	        -20.56896134	        454.11880146	        -20.41319608	          0.74527386	          0.00000000	          0.00532392	          0.00000000	          0.00000000	          0.00000000	          0.00000000	          0.00000000	          0.00000000	          0.00000000	          2.22763246	          0.00000000	          0.00000000	          0.00000000	          0.00000000	
          1.52800000	        -17.90465279	        454.82475483	        -19.65588058	          0.74615226	          0.00000000	          0.00519819	          0.00000000	          0.00000000	          0.00000000	          0.00000000	          0.00000000	          0.00000000	          0.00000000	          2.29506731	          0.00000000	          0.00000000	          0.00000000	          0.00000000	
          1.53200000	        -15.18973986	        455.98150548	        -19.11490412	          0.74693289	          0.00000000	          0.00506656	          0.00000000	          0.00000000	          0.00000000	          0.00000000	          0.00000000	          0.00000000	          0.00000000	          2.39670407	          0.00000000	          0.00000000	          0.00000000	          0.00000000	
          1.53600000	        -12.65372954	        457.57600221	        -18.90376625	          0.74764104	          0.00000000	          0.00493502	          0.00000000	          0.00000000	          0.00000000	          0.00000000	          0.00000000	          0.00000000	          0.00000000	          2.53860266	          0.00000000	          0.00000000	          0.00000000	          0.00000000	
          1.54000000	        -10.43959874	        459.56622459	        -19.07788744	          0.74829945	          0.00000000	          0.00481537	          0.00000000	          0.00000000	          0.00000000	          0.00000000	          0.00000000	          0.00000000	          0.00000000	          2.71898462	          0.00000000	          0.00000000	          0.00000000	          0.00000000	
          1.54400000	         -8.57346566	        461.87385168	        -19.61680499	          0.74891522	          0.00000000	          0.00471736	          0.00000000	          0.00000000	          0.00000000	          0.00000000	          0.00000000	          0.00000000	          0.00000000	          2.92956217	          0.00000000	          0.00000000	          0.00000000	          0.00000000	
          1.54800000	         -6.96695834	        464.38874961	        -20.42857859	          0.74947445	          0.00000000	          0.00464576	          0.00000000	          0.00000000	          0.00000000	          0.00000000	          0.00000000	          0.00000000	          0.00000000	          3.15742551	          0.00000000	          0.00000000	          0.00000000	          0.00000000	
          1.55200000	         -5.44315774	        466.99924895	        -21.38013632	          0.74994054	          0.00000000	          0.00460336	          0.00000000	          0.00000000	          0.00000000	          0.00000000	          0.00000000	          0.00000000	          0.00000000	          3.38700470	          0.00000000	          0.00000000	          0.00000000	          0.00000000	
          1.55600000	         -3.78327322	        469.63272645	        -22.34082202	          0.75026312	          0.00000000	          0.00459347	          0.00000000	          0.00000000	          0.00000000	          0.00000000	          0.00000000	          0.00000000	          0.00000000	          3.60222160	          0.00000000	          0.00000000	          0.00000000	          0.00000000	
          1.56000000	         -1.79119305	        472.28566453	        -23.21648084	          0.75040729	          0.00000000	          0.00461685	          0.00000000	          0.00000000	          0.00000000	          0.00000000	          0.00000000	          0.00000000	          0.00000000	          3.78910387	          0.00000000	          0.00000000	          0.00000000	          0.00000000	
          1.56400000	          0.64259211	        475.02796284	        -23.96393537	          0.75037614	          0.00000000	          0.00466642	          0.00000000	          0.00000000	          0.00000000	          0.00000000	          0.00000000	          0.00000000	          0.00000000	          3.93869535	          0.00000000	          0.00000000	          0.00000000	          0.00000000	
          1.56800000	          3.50457078	        477.97905504	        -24.59073052	          0.75020377	          0.00000000	          0.00472779	          0.00000000	          0.00000000	          0.00000000	          0.00000000	          0.00000000	          0.00000000	          0.00000000	          4.04941539	          0.00000000	          0.00000000	          0.00000000	          0.00000000	
          1.57200000	          6.65970066	        481.28259404	        -25.14500650	          0.74994353	          0.00000000	          0.00478558	          0.00000000	          0.00000000	          0.00000000	          0.00000000	          0.00000000	          0.00000000	          0.00000000	          4.12771928	          0.00000000	          0.00000000	          0.00000000	          0.00000000	
          1.57600000	          9.88072684	        485.09597915	        -25.69897736	          0.74966731	          0.00000000	          0.00482901	          0.00000000	          0.00000000	          0.00000000	          0.00000000	          0.00000000	          0.00000000	          0.00000000	          4.18640227	          0.00000000	          0.00000000	          0.00000000	          0.00000000	
          1.58000000	         12.89780777	        489.57024228	        -26.33163903	          0.74946247	          0.00000000	          0.00485219	          0.00000000	          0.00000000	          0.00000000	          0.00000000	          0.00000000	          0.00000000	          0.00000000	          4.24095821	          0.00000000	          0.00000000	          0.00000000	          0.00000000	
          1.58400000	         15.46585645	        494.80867278	        -27.11231568	          0.74941461	          0.00000000	          0.00484535	          0.00000000	          0.00000000	          0.00000000	          0.00000000	          0.00000000	          0.00000000	          0.00000000	          4.30533624	          0.00000000	          0.00000000	          0.00000000	          0.00000000	
          1.58800000	         17.43156212	        500.82713004	        -28.08334656	          0.74958232	          0.00000000	          0.00479978	          0.00000000	          0.00000000	          0.00000000	          0.00000000	          0.00000000	          0.00000000	          0.00000000	          4.38861635	          0.00000000	          0.00000000	          0.00000000	          0.00000000	
          1.59200000	         18.77318103	        507.53662386	        -29.24413713	          0.74998590	          0.00000000	          0.00471913	          0.00000000	          0.00000000	          0.00000000	          0.00000000	          0.00000000	          0.00000000	          0.00000000	          4.49349264	          0.00000000	          0.00000000	          0.00000000	          0.00000000	
          1.59600000	         19.60181225	        514.75928191	        -30.54315155	          0.75059906	          0.00000000	          0.00461422	          0.00000000	          0.00000000	          0.00000000	          0.00000000	          0.00000000	          0.00000000	          0.00000000	          4.61650059	          0.00000000	          0.00000000	          0.00000000	          0.00000000	
          1.60000000	         20.12968714	        522.28090971	        -31.88560453	          0.75136665	          0.00000000	          0.00449625	          0.00000000	          0.00000000	          0.00000000	          0.00000000	          0.00000000	          0.00000000	          0.00000000	          4.74930753	          0.00000000	          0.00000000	          0.00000000	          0.00000000	
          1.60400000	         20.61636006	        529.91113083	        -33.15727310	          0.75224200	          0.00000000	          0.00437666	          0.00000000	          0.00000000	          0.00000000	          0.00000000	          0.00000000	          0.00000000	          0.00000000	          4.88043536	          0.00000000	          0.00000000	          0.00000000	          0.00000000	
